<mxfile host="app.diagrams.net" modified="2024-05-20T10:27:16.153Z" agent="Mozilla/5.0 (Windows NT 10.0; Win64; x64) AppleWebKit/537.36 (KHTML, like Gecko) Chrome/124.0.0.0 Safari/537.36" etag="9N8OP8hFiv10MwCSFb4S" version="24.4.4" type="google">
  <diagram name="Página-1" id="Be0pTKRTmx7szHcqdmEY">
    <mxGraphModel grid="1" page="1" gridSize="10" guides="1" tooltips="1" connect="1" arrows="1" fold="1" pageScale="1" pageWidth="827" pageHeight="1169" math="0" shadow="0">
      <root>
        <mxCell id="0" />
        <mxCell id="1" parent="0" />
        <mxCell id="VIK7nUUK-sJSA6WGzd2M-1" value="SIGA" style="swimlane;whiteSpace=wrap;html=1;" vertex="1" parent="1">
          <mxGeometry x="120" y="30" width="610" height="870" as="geometry" />
        </mxCell>
        <mxCell id="VIK7nUUK-sJSA6WGzd2M-7" value="Matrícula Online" style="ellipse;whiteSpace=wrap;html=1;" vertex="1" parent="VIK7nUUK-sJSA6WGzd2M-1">
          <mxGeometry x="70" y="100" width="120" height="80" as="geometry" />
        </mxCell>
        <mxCell id="VIK7nUUK-sJSA6WGzd2M-8" value="Calendário&amp;nbsp;&lt;div&gt;de Provas&lt;/div&gt;" style="ellipse;whiteSpace=wrap;html=1;" vertex="1" parent="VIK7nUUK-sJSA6WGzd2M-1">
          <mxGeometry x="280" y="420" width="120" height="80" as="geometry" />
        </mxCell>
        <mxCell id="VIK7nUUK-sJSA6WGzd2M-9" value="Histórico" style="ellipse;whiteSpace=wrap;html=1;" vertex="1" parent="VIK7nUUK-sJSA6WGzd2M-1">
          <mxGeometry x="234" y="280" width="120" height="80" as="geometry" />
        </mxCell>
        <mxCell id="VIK7nUUK-sJSA6WGzd2M-10" value="Grade Horária" style="ellipse;whiteSpace=wrap;html=1;" vertex="1" parent="VIK7nUUK-sJSA6WGzd2M-1">
          <mxGeometry x="370" y="70" width="120" height="80" as="geometry" />
        </mxCell>
        <mxCell id="VIK7nUUK-sJSA6WGzd2M-11" value="Notas parciais" style="ellipse;whiteSpace=wrap;html=1;" vertex="1" parent="VIK7nUUK-sJSA6WGzd2M-1">
          <mxGeometry x="420" y="730" width="120" height="80" as="geometry" />
        </mxCell>
        <mxCell id="VIK7nUUK-sJSA6WGzd2M-12" value="Faltas parciais" style="ellipse;whiteSpace=wrap;html=1;" vertex="1" parent="VIK7nUUK-sJSA6WGzd2M-1">
          <mxGeometry x="110" y="570" width="120" height="80" as="geometry" />
        </mxCell>
        <mxCell id="VIK7nUUK-sJSA6WGzd2M-13" value="Gerenciamento&amp;nbsp;&lt;div&gt;de senha&lt;/div&gt;" style="ellipse;whiteSpace=wrap;html=1;" vertex="1" parent="VIK7nUUK-sJSA6WGzd2M-1">
          <mxGeometry x="280" y="720" width="120" height="80" as="geometry" />
        </mxCell>
        <mxCell id="VIK7nUUK-sJSA6WGzd2M-34" value="" style="endArrow=classic;html=1;rounded=0;exitX=1;exitY=0;exitDx=0;exitDy=0;dashed=1;entryX=0;entryY=0.5;entryDx=0;entryDy=0;" edge="1" parent="VIK7nUUK-sJSA6WGzd2M-1" source="VIK7nUUK-sJSA6WGzd2M-7" target="VIK7nUUK-sJSA6WGzd2M-10">
          <mxGeometry width="50" height="50" relative="1" as="geometry">
            <mxPoint x="331" y="110" as="sourcePoint" />
            <mxPoint x="381" y="60" as="targetPoint" />
          </mxGeometry>
        </mxCell>
        <mxCell id="VIK7nUUK-sJSA6WGzd2M-35" value="&amp;lt;&amp;lt;include&amp;gt;&amp;gt;" style="edgeLabel;html=1;align=center;verticalAlign=middle;resizable=0;points=[];" connectable="0" vertex="1" parent="VIK7nUUK-sJSA6WGzd2M-34">
          <mxGeometry x="-0.0166" relative="1" as="geometry">
            <mxPoint as="offset" />
          </mxGeometry>
        </mxCell>
        <mxCell id="VIK7nUUK-sJSA6WGzd2M-37" value="" style="endArrow=classic;html=1;rounded=0;exitX=0.5;exitY=1;exitDx=0;exitDy=0;dashed=1;" edge="1" parent="VIK7nUUK-sJSA6WGzd2M-1" source="VIK7nUUK-sJSA6WGzd2M-7" target="VIK7nUUK-sJSA6WGzd2M-9">
          <mxGeometry width="50" height="50" relative="1" as="geometry">
            <mxPoint x="173" y="82" as="sourcePoint" />
            <mxPoint x="370" y="50" as="targetPoint" />
          </mxGeometry>
        </mxCell>
        <mxCell id="VIK7nUUK-sJSA6WGzd2M-38" value="&amp;lt;&amp;lt;include&amp;gt;&amp;gt;" style="edgeLabel;html=1;align=center;verticalAlign=middle;resizable=0;points=[];" connectable="0" vertex="1" parent="VIK7nUUK-sJSA6WGzd2M-37">
          <mxGeometry x="-0.0166" relative="1" as="geometry">
            <mxPoint as="offset" />
          </mxGeometry>
        </mxCell>
        <mxCell id="VIK7nUUK-sJSA6WGzd2M-39" value="Solicitação de documentos" style="ellipse;whiteSpace=wrap;html=1;" vertex="1" parent="VIK7nUUK-sJSA6WGzd2M-1">
          <mxGeometry x="60" y="720" width="120" height="80" as="geometry" />
        </mxCell>
        <mxCell id="VIK7nUUK-sJSA6WGzd2M-5" value="Aluno" style="shape=umlActor;verticalLabelPosition=bottom;verticalAlign=top;html=1;outlineConnect=0;" vertex="1" parent="1">
          <mxGeometry x="790" y="420" width="30" height="60" as="geometry" />
        </mxCell>
        <mxCell id="VIK7nUUK-sJSA6WGzd2M-14" value="" style="endArrow=none;html=1;rounded=0;exitX=0;exitY=0.3333333333333333;exitDx=0;exitDy=0;exitPerimeter=0;entryX=1;entryY=1;entryDx=0;entryDy=0;" edge="1" parent="1" source="VIK7nUUK-sJSA6WGzd2M-5" target="VIK7nUUK-sJSA6WGzd2M-7">
          <mxGeometry width="50" height="50" relative="1" as="geometry">
            <mxPoint x="700" y="270" as="sourcePoint" />
            <mxPoint x="750" y="220" as="targetPoint" />
          </mxGeometry>
        </mxCell>
        <mxCell id="VIK7nUUK-sJSA6WGzd2M-18" value="" style="endArrow=none;html=1;rounded=0;entryX=0;entryY=0.3333333333333333;entryDx=0;entryDy=0;entryPerimeter=0;exitX=1;exitY=0.5;exitDx=0;exitDy=0;" edge="1" parent="1" source="VIK7nUUK-sJSA6WGzd2M-8" target="VIK7nUUK-sJSA6WGzd2M-5">
          <mxGeometry width="50" height="50" relative="1" as="geometry">
            <mxPoint x="670" y="440" as="sourcePoint" />
            <mxPoint x="720" y="390" as="targetPoint" />
          </mxGeometry>
        </mxCell>
        <mxCell id="VIK7nUUK-sJSA6WGzd2M-19" value="" style="endArrow=none;html=1;rounded=0;entryX=0;entryY=0.3333333333333333;entryDx=0;entryDy=0;entryPerimeter=0;exitX=1;exitY=0.5;exitDx=0;exitDy=0;" edge="1" parent="1" source="VIK7nUUK-sJSA6WGzd2M-9" target="VIK7nUUK-sJSA6WGzd2M-5">
          <mxGeometry width="50" height="50" relative="1" as="geometry">
            <mxPoint x="620" y="420" as="sourcePoint" />
            <mxPoint x="670" y="370" as="targetPoint" />
          </mxGeometry>
        </mxCell>
        <mxCell id="VIK7nUUK-sJSA6WGzd2M-20" value="" style="endArrow=none;html=1;rounded=0;entryX=0;entryY=0.3333333333333333;entryDx=0;entryDy=0;entryPerimeter=0;exitX=1;exitY=1;exitDx=0;exitDy=0;" edge="1" parent="1" source="VIK7nUUK-sJSA6WGzd2M-10" target="VIK7nUUK-sJSA6WGzd2M-5">
          <mxGeometry width="50" height="50" relative="1" as="geometry">
            <mxPoint x="610" y="460" as="sourcePoint" />
            <mxPoint x="660" y="410" as="targetPoint" />
          </mxGeometry>
        </mxCell>
        <mxCell id="VIK7nUUK-sJSA6WGzd2M-21" value="" style="endArrow=none;html=1;rounded=0;entryX=0;entryY=0.3333333333333333;entryDx=0;entryDy=0;entryPerimeter=0;exitX=1;exitY=0;exitDx=0;exitDy=0;" edge="1" parent="1" source="VIK7nUUK-sJSA6WGzd2M-11" target="VIK7nUUK-sJSA6WGzd2M-5">
          <mxGeometry width="50" height="50" relative="1" as="geometry">
            <mxPoint x="650" y="520" as="sourcePoint" />
            <mxPoint x="700" y="470" as="targetPoint" />
          </mxGeometry>
        </mxCell>
        <mxCell id="VIK7nUUK-sJSA6WGzd2M-22" value="" style="endArrow=none;html=1;rounded=0;entryX=0;entryY=0.3333333333333333;entryDx=0;entryDy=0;entryPerimeter=0;exitX=1;exitY=0.5;exitDx=0;exitDy=0;" edge="1" parent="1" source="VIK7nUUK-sJSA6WGzd2M-12" target="VIK7nUUK-sJSA6WGzd2M-5">
          <mxGeometry width="50" height="50" relative="1" as="geometry">
            <mxPoint x="330" y="630" as="sourcePoint" />
            <mxPoint x="680" y="540" as="targetPoint" />
          </mxGeometry>
        </mxCell>
        <mxCell id="VIK7nUUK-sJSA6WGzd2M-23" value="" style="endArrow=none;html=1;rounded=0;entryX=0;entryY=0.3333333333333333;entryDx=0;entryDy=0;entryPerimeter=0;exitX=1;exitY=0;exitDx=0;exitDy=0;" edge="1" parent="1" source="VIK7nUUK-sJSA6WGzd2M-13" target="VIK7nUUK-sJSA6WGzd2M-5">
          <mxGeometry width="50" height="50" relative="1" as="geometry">
            <mxPoint x="610" y="610" as="sourcePoint" />
            <mxPoint x="660" y="560" as="targetPoint" />
          </mxGeometry>
        </mxCell>
        <mxCell id="VIK7nUUK-sJSA6WGzd2M-40" value="" style="endArrow=none;html=1;rounded=0;entryX=0;entryY=0.3333333333333333;entryDx=0;entryDy=0;entryPerimeter=0;exitX=1;exitY=0.5;exitDx=0;exitDy=0;" edge="1" parent="1" source="VIK7nUUK-sJSA6WGzd2M-39" target="VIK7nUUK-sJSA6WGzd2M-5">
          <mxGeometry width="50" height="50" relative="1" as="geometry">
            <mxPoint x="570" y="670" as="sourcePoint" />
            <mxPoint x="620" y="620" as="targetPoint" />
          </mxGeometry>
        </mxCell>
        <mxCell id="VIK7nUUK-sJSA6WGzd2M-41" value="Secretaria&lt;div&gt;Acadêmica&lt;/div&gt;" style="shape=umlActor;verticalLabelPosition=bottom;verticalAlign=top;html=1;outlineConnect=0;" vertex="1" parent="1">
          <mxGeometry x="30" y="420" width="30" height="60" as="geometry" />
        </mxCell>
        <mxCell id="VIK7nUUK-sJSA6WGzd2M-43" value="" style="endArrow=none;html=1;rounded=0;exitX=1;exitY=0.3333333333333333;exitDx=0;exitDy=0;exitPerimeter=0;entryX=0;entryY=0;entryDx=0;entryDy=0;" edge="1" parent="1" source="VIK7nUUK-sJSA6WGzd2M-41" target="VIK7nUUK-sJSA6WGzd2M-39">
          <mxGeometry width="50" height="50" relative="1" as="geometry">
            <mxPoint x="140" y="540" as="sourcePoint" />
            <mxPoint x="190" y="490" as="targetPoint" />
          </mxGeometry>
        </mxCell>
      </root>
    </mxGraphModel>
  </diagram>
</mxfile>
